<svg width="54" height="16" viewBox="0 0 54 16" fill="none" xmlns="http://www.w3.org/2000/svg">
<g clip-path="url(#clip0_1253_18975)">
<g clip-path="url(#clip1_1253_18975)">
<path d="M47.149 12.1074C46.4639 11.7504 45.9445 11.2262 45.5799 10.557C45.2042 9.88777 45.0274 9.11817 45.0274 8.24818C45.0274 7.37819 45.2152 6.60859 45.5799 5.93936C45.9445 5.27014 46.4749 4.75707 47.149 4.389C47.8341 4.03208 48.6186 3.84247 49.5137 3.84247C50.4087 3.84247 51.1933 4.02093 51.8784 4.389C52.5635 4.75707 53.0828 5.27014 53.4475 5.93936C53.8121 6.60859 54 7.37819 54 8.24818C54 9.12932 53.8121 9.89893 53.4475 10.5681C53.0718 11.2374 52.5524 11.7504 51.8784 12.1074C51.1933 12.4643 50.4087 12.6539 49.5137 12.6539C48.6186 12.6539 47.823 12.4754 47.149 12.1074ZM51.0607 10.0439C51.4364 9.58662 51.6353 8.98432 51.6353 8.25933C51.6353 7.52319 51.4474 6.93204 51.0607 6.47474C50.6739 6.01744 50.1656 5.78321 49.5137 5.78321C48.8728 5.78321 48.3645 6.01744 47.9777 6.47474C47.591 6.93204 47.4031 7.52319 47.4031 8.25933C47.4031 8.99548 47.591 9.59778 47.9777 10.0439C48.3645 10.5012 48.8728 10.7355 49.5137 10.7355C50.1656 10.7355 50.6739 10.5012 51.0607 10.0439Z" fill="#19212E"/>
<path d="M44.2207 3.95399V12.297C44.2207 13.4235 43.845 14.3269 43.1157 14.9962C42.3754 15.6654 41.2262 16 39.6681 16C38.4636 16 37.4912 15.7323 36.7509 15.1969C36.0105 14.6615 35.6127 13.9031 35.5575 12.9216H37.9111C38.0216 13.3343 38.2426 13.6466 38.5631 13.8696C38.8835 14.0927 39.3145 14.2042 39.8449 14.2042C40.5079 14.2042 41.0272 14.0369 41.3919 13.7023C41.7566 13.3677 41.9444 12.8658 41.9444 12.2189V11.3154C41.3256 12.1073 40.4416 12.4977 39.3145 12.4977C38.5631 12.4977 37.889 12.3193 37.2923 11.9623C36.6956 11.6054 36.2315 11.1035 35.889 10.4454C35.5464 9.79853 35.3807 9.02893 35.3807 8.15894C35.3807 7.3001 35.5464 6.54165 35.889 5.88358C36.2205 5.22551 36.6956 4.7236 37.3034 4.36668C37.9001 4.00976 38.5852 3.8313 39.3366 3.8313C40.4526 3.8313 41.3367 4.26629 41.9886 5.13628L42.1875 3.95399H44.2207ZM41.3588 9.94353C41.7345 9.49738 41.9223 8.91739 41.9223 8.20355C41.9223 7.47856 41.7345 6.88741 41.3588 6.43011C40.9831 5.97281 40.4747 5.74974 39.8449 5.74974C39.215 5.74974 38.7067 5.97281 38.331 6.43011C37.9443 6.87626 37.7564 7.46741 37.7564 8.1924C37.7564 8.91739 37.9443 9.50853 38.331 9.95468C38.7178 10.4008 39.215 10.6239 39.8449 10.6239C40.4747 10.6128 40.9831 10.3897 41.3588 9.94353Z" fill="#19212E"/>
<path d="M34.574 3.954V12.5535H32.4966L32.2977 11.3489C31.6237 12.2077 30.7397 12.6316 29.6457 12.6316C28.8943 12.6316 28.2202 12.4531 27.6235 12.0962C27.0268 11.7393 26.5627 11.2262 26.2202 10.557C25.8776 9.88777 25.7119 9.11817 25.7119 8.22587C25.7119 7.35588 25.8776 6.58628 26.2202 5.91706C26.5517 5.24783 27.0268 4.73476 27.6346 4.36669C28.2313 4.00977 28.9164 3.82016 29.6678 3.82016C30.2424 3.82016 30.7507 3.9317 31.1927 4.15477C31.6347 4.37784 31.9994 4.69015 32.2867 5.06937L32.5187 3.9317H34.574V3.954ZM31.7121 10.0551C32.0878 9.60893 32.2756 9.00663 32.2756 8.27048C32.2756 7.52319 32.0878 6.92089 31.7121 6.46359C31.3364 6.00628 30.8281 5.77206 30.1982 5.77206C29.5683 5.77206 29.06 6.00628 28.6843 6.46359C28.2976 6.92089 28.1097 7.52319 28.1097 8.27048C28.1097 9.00663 28.2976 9.59777 28.6843 10.0551C29.0711 10.5124 29.5683 10.7355 30.1982 10.7355C30.8281 10.7355 31.3364 10.5012 31.7121 10.0551Z" fill="#19212E"/>
<path d="M18.5625 12.5535V0.842102H21.0488V10.4008H25.6566V12.5535H18.5625Z" fill="#19212E"/>
</g>
<g clip-path="url(#clip2_1253_18975)">
<g clip-path="url(#clip3_1253_18975)">
<path d="M13.4156 7.79547C13.1987 9.20298 12.5478 10.4782 11.5232 11.5007C10.4987 12.5233 9.22099 13.1729 7.81072 13.3894C7.81072 13.3774 7.79866 13.3654 7.79866 13.3534V13.3413C7.78661 13.3173 7.78661 13.3052 7.77456 13.2691C7.7625 13.2331 7.75045 13.197 7.7384 13.1609C7.67813 12.9925 7.64197 12.8 7.60581 12.6075V12.5955C7.60581 12.5714 7.59375 12.5473 7.59375 12.5233V12.5113C7.59375 12.4872 7.5817 12.4631 7.5817 12.4511V12.427C7.5817 12.403 7.56965 12.3789 7.56965 12.3428C7.55759 12.2827 7.55759 12.2225 7.55759 12.1503V12.1263C7.55759 12.1143 7.55759 12.1022 7.55759 12.0902V12.0661C7.55759 11.994 7.54554 11.9218 7.54554 11.8376C7.54554 9.45561 9.49822 7.50674 11.8848 7.50674C11.9571 7.50674 12.0415 7.50674 12.1138 7.50674H12.138C12.15 7.50674 12.1621 7.50674 12.1741 7.50674H12.1982C12.2585 7.50674 12.3308 7.51877 12.3911 7.5308C12.4152 7.5308 12.4513 7.5308 12.4875 7.54283C12.5116 7.54283 12.5357 7.55486 12.5478 7.55486H12.5598C12.5839 7.55486 12.608 7.55486 12.6321 7.56689H12.6442C12.8371 7.60298 13.0179 7.6511 13.2107 7.71126C13.2469 7.72329 13.283 7.73532 13.3192 7.74735C13.3433 7.75938 13.3554 7.75938 13.3795 7.77141H13.3915C13.3915 7.78344 13.4036 7.79547 13.4156 7.79547Z" fill="#19212E"/>
<path opacity="0.6" d="M13.5 6.80901H13.4879C13.3795 6.77292 13.271 6.74886 13.1625 6.71277C13.1504 6.71277 13.1384 6.70074 13.1143 6.70074C13.0179 6.67668 12.9214 6.65262 12.8129 6.64059C12.8129 6.64059 12.8129 6.64059 12.8009 6.64059C12.7768 6.64059 12.7406 6.62856 12.7165 6.62856H12.6924C12.6562 6.62856 12.6201 6.61653 12.596 6.61653C12.5598 6.61653 12.5116 6.6045 12.4875 6.6045C12.4152 6.59247 12.3308 6.59247 12.2585 6.58044C12.2344 6.58044 12.2103 6.58044 12.1862 6.58044H12.1259C12.0415 6.58044 11.9571 6.58044 11.8607 6.58044C8.93169 6.58044 6.55714 8.95037 6.55714 11.8737C6.55714 11.9579 6.55714 12.0421 6.56919 12.1383V12.1985C6.56919 12.2225 6.56919 12.2466 6.58125 12.2707C6.5933 12.3428 6.5933 12.4271 6.60536 12.4992C6.60536 12.5353 6.61741 12.5714 6.61741 12.6075C6.61741 12.6436 6.62946 12.6797 6.62946 12.7037C6.64152 12.7519 6.64152 12.788 6.65357 12.824C6.68973 13.0526 6.75 13.2812 6.82232 13.5098C6.82232 13.5098 6.82232 13.5098 6.82232 13.5218C5.32768 13.5459 3.90535 13.0767 2.71205 12.1865C2.71205 12.1624 2.71205 12.1383 2.71205 12.1263C2.71205 12.0541 2.71205 11.9699 2.71205 11.8977C2.71205 6.85714 6.82232 2.75488 11.8728 2.75488C11.9451 2.75488 12.0295 2.75488 12.1018 2.75488C12.1259 2.75488 12.15 2.75488 12.1621 2.75488C13.054 3.88571 13.5121 5.31729 13.5 6.80901Z" fill="#19212E"/>
<path opacity="0.3" d="M11.2942 1.74436C11.246 1.74436 11.1857 1.75639 11.1375 1.75639C11.0531 1.75639 10.9808 1.76842 10.8964 1.78045C10.8723 1.78045 10.8362 1.78045 10.812 1.79248C10.7879 1.79248 10.7759 1.79248 10.7518 1.80451C10.6071 1.81654 10.4625 1.8406 10.3179 1.86466C10.2094 1.87669 10.1129 1.90075 10.0045 1.91278C9.94419 1.92481 9.87187 1.93684 9.8116 1.94887C9.73928 1.9609 9.66696 1.98496 9.58258 1.99699C9.55848 2.00902 9.52232 2.00902 9.49821 2.02105C9.44999 2.03308 9.38973 2.04511 9.34151 2.05714C9.3174 2.05714 9.30535 2.06917 9.28124 2.06917C9.22098 2.0812 9.16071 2.09323 9.11249 2.11729C9.08839 2.12932 9.05223 2.12932 9.02812 2.14135C8.97991 2.15338 8.94374 2.16541 8.89553 2.17744C8.85937 2.18947 8.82321 2.2015 8.7991 2.21353C8.73883 2.22556 8.69062 2.24962 8.6424 2.26165C8.63035 2.26165 8.6183 2.27368 8.60624 2.27368C8.53392 2.29774 8.4616 2.3218 8.38928 2.35789C8.3049 2.38195 8.23258 2.41804 8.16026 2.4421C8.11205 2.45413 8.06383 2.47819 8.02767 2.50225C7.97946 2.51428 7.9433 2.53834 7.89508 2.55037C7.82276 2.58646 7.73839 2.61052 7.66607 2.64661C7.53348 2.70676 7.40089 2.76691 7.2683 2.8391C7.09955 2.92331 6.94285 3.00752 6.7741 3.10376C6.72589 3.13985 6.66562 3.16391 6.6174 3.2C6.55714 3.23609 6.49687 3.27218 6.42455 3.3203C6.36428 3.35639 6.30401 3.39248 6.2558 3.42857C6.20758 3.46466 6.14732 3.50075 6.0991 3.53684C6.05089 3.57293 6.00267 3.60902 5.95446 3.64511C5.83392 3.72932 5.72544 3.81353 5.61696 3.89774C5.56874 3.93383 5.53258 3.96992 5.48437 4.00601C5.41205 4.06616 5.32767 4.13834 5.25535 4.19849C5.19508 4.24661 5.13482 4.30676 5.07455 4.35488C5.02633 4.39097 4.99017 4.43909 4.94196 4.47518C4.79732 4.61954 4.65267 4.75188 4.50803 4.90827C4.45982 4.95639 4.42366 4.99248 4.38749 5.0406C4.32723 5.10075 4.27901 5.1609 4.2308 5.22105C4.15848 5.29323 4.09821 5.37744 4.03794 5.44962C4.00178 5.49774 3.96562 5.53383 3.92946 5.58195C3.84508 5.69022 3.76071 5.81052 3.67633 5.91879C3.64017 5.96691 3.60401 6.01503 3.56785 6.06315C3.53169 6.11127 3.49553 6.17142 3.45937 6.21954C3.42321 6.27969 3.38705 6.32781 3.35089 6.38796C3.31473 6.44811 3.26651 6.50827 3.23035 6.58045C3.19419 6.62857 3.17008 6.68872 3.13392 6.73684C3.03749 6.89323 2.95312 7.06165 2.86874 7.21804C2.79642 7.35037 2.73616 7.4827 2.67589 7.61503C2.63973 7.68721 2.60357 7.75939 2.57946 7.8436C2.5674 7.87969 2.5433 7.92781 2.53124 7.97593C2.50714 8.02405 2.49508 8.07217 2.47098 8.10826C2.43482 8.18044 2.41071 8.26465 2.3866 8.33683C2.36249 8.40902 2.33839 8.4812 2.30223 8.55338C2.30223 8.56541 2.29017 8.57744 2.29017 8.58947C2.26607 8.63759 2.25401 8.69774 2.24196 8.74586C2.22991 8.78195 2.21785 8.81804 2.2058 8.8421C2.19374 8.89022 2.18169 8.92631 2.16964 8.97443C2.15758 8.99849 2.15758 9.03458 2.14553 9.05864C2.13348 9.11879 2.10937 9.17894 2.09732 9.22706C2.09732 9.23909 2.08526 9.26315 2.08526 9.28721C2.07321 9.33533 2.06116 9.39548 2.0491 9.4436C2.0491 9.46766 2.03705 9.49172 2.02499 9.52781C2.01294 9.59999 1.98883 9.67217 1.97678 9.75638C1.96473 9.81653 1.95267 9.87668 1.94062 9.94886C1.91651 10.0571 1.90446 10.1534 1.8924 10.2616C1.8683 10.406 1.85624 10.5504 1.83214 10.6947C1.83214 10.7188 1.83214 10.7308 1.82008 10.7549C1.82008 10.7789 1.82008 10.803 1.80803 10.8391C1.79598 10.9233 1.79598 10.9955 1.78392 11.0797C1.78392 11.1278 1.77187 11.188 1.77187 11.2361C0.638834 10.0451 0.0241014 8.4812 -5.75284e-06 6.82105C-0.0241129 5.05263 0.638833 3.36842 1.85624 2.09323C1.8924 2.04511 1.94062 2.00902 1.97678 1.97293C2.01294 1.93684 2.06115 1.88872 2.09732 1.85263C3.36294 0.661654 5.01428 0 6.74999 0H6.83437C8.49776 0.0240601 10.0647 0.637593 11.2942 1.74436Z" fill="#19212E"/>
</g>
</g>
</g>
<defs>
<clipPath id="clip0_1253_18975">
<rect width="54" height="16" fill="white"/>
</clipPath>
<clipPath id="clip1_1253_18975">
<rect width="35.4375" height="15.1579" fill="white" transform="translate(18.5625 0.842102)"/>
</clipPath>
<clipPath id="clip2_1253_18975">
<rect width="13.5" height="13.4737" fill="white"/>
</clipPath>
<clipPath id="clip3_1253_18975">
<rect width="13.5" height="13.4737" fill="white"/>
</clipPath>
</defs>
</svg>
